# xmcd
#
# Track frame offsets:
#	150
#	7345
#	18335
#	27900
#	36792
#	46402
#	55350
#	64617
#	75375
#	85132
#	93765
#	101847
#
# Disc length: 1458 seconds
#
# Revision: 1
# Processed by: cddbd v1.5.2PL0 Copyright (c) Steve Scherf et al.
# Submitted via: audiograbber 1.83.01
#
DISCID=8d05b00c
DTITLE=Diane Ray - The Exciting Years 
DYEAR=1994
DGENRE=Oldies
TTITLE0=Please Don't Talk To The Lifeguard
TTITLE1=That's All I Want From You
TTITLE2=Happy, Happy Birthday Baby
TTITLE3=That Boy's Gonna Be Me
TTITLE4=Snow Man
TTITLE5=My Summer Love
TTITLE6=Just So Bobby Can See
TTITLE7=No Arms Can Ever Hold You
TTITLE8=Tied Up With Mary
TTITLE9=Slow Dance With You
TTITLE10=Where Is The Boy
TTITLE11=You'd Be So Proud Of Me
EXTD=
EXTT0=
EXTT1=
EXTT2=
EXTT3=
EXTT4=
EXTT5=
EXTT6=
EXTT7=
EXTT8=
EXTT9=
EXTT10=
EXTT11=
PLAYORDER=
